<svg width="45" height="45" viewBox="0 0 45 45" fill="none" xmlns="http://www.w3.org/2000/svg">
<circle cx="22.5" cy="22.5" r="22" stroke="#060D1C" stroke-dasharray="3 3"/>
<path d="M20 24.25C20 24.6875 19.6562 25 19.25 25C18.8125 25 18.5 24.6875 18.5 24.25C18.5 23.8438 18.8125 23.5 19.25 23.5C19.6562 23.5 20 23.8438 20 24.25ZM26 24.25C26 23.8438 26.3125 23.5 26.75 23.5C27.1562 23.5 27.5 23.8438 27.5 24.25C27.5 24.6875 27.1562 25 26.75 25C26.3125 25 26 24.6875 26 24.25ZM21.5938 15.0938C21.9375 15.2812 22.0938 15.75 21.9062 16.125L19.3438 21H26.625L24.0625 16.125C23.875 15.75 24.0312 15.2812 24.375 15.0938C24.75 14.9062 25.2188 15.0625 25.4062 15.4062L28.3125 21H31.25C31.6562 21 32 21.3438 32 21.75C32 22.1875 31.6562 22.5 31.25 22.5H30.625L28.875 29.5C28.625 30.375 27.8438 31 26.9375 31H19.0312C18.125 31 17.3438 30.375 17.0938 29.5L15.375 22.5H14.75C14.3125 22.5 14 22.1875 14 21.75C14 21.3438 14.3125 21 14.75 21H17.6562L20.5625 15.4062C20.75 15.0625 21.2188 14.9062 21.5938 15.0938ZM29.0625 22.5H16.9062L18.5625 29.125C18.625 29.3438 18.8125 29.5 19.0312 29.5H26.9375C27.1562 29.5 27.3438 29.3438 27.4062 29.125L29.0625 22.5Z" fill="#060D1C"/>
</svg>
