<svg width="22" height="17" viewBox="0 0 22 17" fill="none" xmlns="http://www.w3.org/2000/svg">
<path d="M20.9292 5.91686C21.0917 5.78445 21.3333 5.90831 21.3333 6.1176V14.8519C21.3333 15.9838 20.4375 16.9021 19.3333 16.9021H2C0.895833 16.9021 0 15.9838 0 14.8519V6.12187C0 5.90831 0.2375 5.78872 0.404167 5.92113C1.3375 6.66429 2.575 7.6082 6.825 10.7731C7.70417 11.4308 9.1875 12.8146 10.6667 12.8061C12.1542 12.8189 13.6667 11.4052 14.5125 10.7731C18.7625 7.6082 19.9958 6.66002 20.9292 5.91686ZM10.6667 11.4351C11.6333 11.4522 13.025 10.1879 13.725 9.66686C19.2542 5.55382 19.675 5.19504 20.95 4.16999C21.1917 3.97779 21.3333 3.67882 21.3333 3.36276V2.55125C21.3333 1.41942 20.4375 0.501139 19.3333 0.501139H2C0.895833 0.501139 0 1.41942 0 2.55125V3.36276C0 3.67882 0.141667 3.97352 0.383333 4.16999C1.65833 5.19077 2.07917 5.55382 7.60833 9.66686C8.30833 10.1879 9.7 11.4522 10.6667 11.4351Z" fill="white"/>
</svg>
