<svg width="237" height="57" viewBox="0 0 237 57" fill="none" xmlns="http://www.w3.org/2000/svg">
<path d="M59.5278 15.7119C58.6373 16.1093 58.1303 16.3801 57.5849 16.1748C56.72 15.8473 55.74 15.4673 54.6918 15.0568C55.0327 14.6768 55.1946 14.323 55.0327 14.0915C54.8026 13.764 54.547 13.4058 54.547 13.4058C54.547 13.4058 54.2913 13.0477 54.0612 12.7201C53.7332 12.2572 52.5103 12.9385 51.5644 13.8164C46.4941 11.7986 41.0659 9.58859 39.9368 9.25229C38.8545 8.92909 37.4953 9.71525 37.5081 10.0384C37.5124 10.1476 37.9555 10.2263 38.2026 10.3573C39.2039 10.8814 40.7889 11.982 42.4165 13.1874C42.3356 13.2661 42.2631 13.3403 42.2163 13.4102C42.0501 13.646 42.0885 13.7028 42.0885 13.7028C42.0885 13.7028 42.1268 13.7596 42.3995 13.6679C42.5103 13.6329 42.6509 13.5543 42.7872 13.467C43.5755 14.0522 44.3595 14.6549 45.0838 15.214C45.0114 15.2839 44.9517 15.3494 44.9091 15.4105C44.7429 15.6464 44.7813 15.7031 44.7813 15.7031C44.7813 15.7031 44.8196 15.7599 45.0923 15.6682C45.1903 15.6376 45.3139 15.5678 45.4417 15.4891C46.1277 16.022 46.7412 16.5111 47.2312 16.8999C47.129 16.9916 47.0352 17.0877 46.9756 17.1706C46.8094 17.4065 46.8477 17.4633 46.8477 17.4633C46.8477 17.4633 46.8861 17.52 47.1588 17.4283C47.2823 17.389 47.4443 17.2929 47.5976 17.1925C48.0962 17.5899 48.3987 17.8389 48.3987 17.8389L49.7962 19.8261C49.6897 19.9222 49.596 20.0183 49.5363 20.1013C49.3701 20.3371 49.4085 20.3939 49.4085 20.3939C49.4085 20.3939 49.4468 20.4507 49.7195 20.3589C49.8133 20.3284 49.9326 20.2629 50.0519 20.193L50.7336 21.1626C51.0148 21.6779 50.7251 22.1147 50.6185 22.3505L59.5278 15.7119Z" fill="white"/>
<path d="M60.7123 28.2118C60.7081 28.1681 60.7081 28.1244 60.7038 28.0808C60.691 27.8449 60.6782 27.6134 60.6612 27.3776C60.6569 27.2859 60.6527 27.1941 60.6442 27.1024C60.6356 26.9234 60.6229 26.7443 60.6143 26.5652C61.7221 25.9144 62.7319 24.9318 62.3996 24.4688C62.1695 24.1412 61.9139 23.7831 61.9139 23.7831C61.9139 23.7831 61.6582 23.4249 61.4281 23.0974C61.2662 22.8659 60.8828 22.9183 60.4269 23.1323C60.3672 21.9837 60.3161 20.9092 60.282 19.9659C60.2607 19.3719 60.6655 18.9613 61.3088 18.2145L52.4038 24.8619C52.6552 24.8313 53.1494 24.6828 53.5414 25.1152L54.2317 26.0804C54.1252 26.1765 54.0314 26.2726 53.9718 26.3556C53.8056 26.5914 53.844 26.6482 53.844 26.6482C53.844 26.6482 53.8823 26.705 54.155 26.6133C54.2487 26.5827 54.368 26.5172 54.4916 26.4429L55.6974 28.1244L55.9062 28.4171C55.9062 28.4171 55.9104 28.4258 55.9189 28.4476C55.9275 28.4695 55.936 28.4957 55.953 28.535C55.9658 28.5699 55.9829 28.6136 55.9956 28.6573C56.0042 28.6791 56.0127 28.7053 56.0212 28.7315C56.034 28.7665 56.0468 28.8058 56.0638 28.8451C56.0723 28.8713 56.0851 28.9018 56.0936 28.9281C56.1107 28.9717 56.1277 29.0198 56.1448 29.0678C56.1576 29.1071 56.1746 29.1464 56.1874 29.1857C56.2044 29.2381 56.2257 29.2906 56.247 29.3473C56.2513 29.3604 56.2556 29.3735 56.2598 29.3823C56.1192 29.5002 55.9829 29.6312 55.9062 29.7404C55.74 29.9763 55.7783 30.033 55.7783 30.033C55.7783 30.033 55.8167 30.0898 56.0894 29.9981C56.1831 29.9675 56.2982 29.9064 56.4175 29.8321C56.4388 29.8933 56.4601 29.9588 56.4856 30.0243C56.5027 30.068 56.5155 30.1117 56.5325 30.1597C56.5623 30.2427 56.5922 30.33 56.622 30.4174C56.639 30.4654 56.6561 30.5091 56.6731 30.5571C56.7115 30.662 56.7455 30.7712 56.7839 30.8803C56.7967 30.9109 56.8052 30.9459 56.818 30.9764C56.9202 31.2734 57.0268 31.5835 57.1418 31.9111C57.1546 31.946 57.1674 31.981 57.1759 32.0159C57.0651 32.1164 56.9628 32.2168 56.9032 32.2998C56.737 32.5356 56.7754 32.5924 56.7754 32.5924C56.7754 32.5924 56.8137 32.6492 57.0864 32.5575C57.1546 32.5356 57.2355 32.492 57.3207 32.4483C57.3378 32.4963 57.3548 32.5444 57.3676 32.5924C57.4017 32.6972 57.4401 32.8021 57.4741 32.9069C57.4954 32.9724 57.5167 33.0379 57.538 33.0991C57.5721 33.2082 57.6105 33.3131 57.6446 33.4223C57.6659 33.4921 57.6914 33.562 57.717 33.6319C57.7511 33.7367 57.7894 33.8459 57.8235 33.9507C57.9599 34.37 58.1005 34.7937 58.2368 35.2173C58.1133 35.3265 57.9939 35.4401 57.93 35.5361C57.7639 35.772 57.8022 35.8288 57.8022 35.8288C57.8022 35.8288 57.8406 35.8855 58.1133 35.7938C58.1899 35.7676 58.2837 35.7239 58.3817 35.6672C58.9995 37.6238 59.5364 39.5062 59.711 40.6462C59.7537 40.9257 59.6897 41.3799 59.792 41.4192C60.0903 41.5284 61.2364 40.4453 61.2705 39.2922C61.2961 38.4668 61.1214 35.4051 60.9126 31.7757C60.9083 31.7014 60.9041 31.6272 60.8998 31.5573C60.887 31.3651 60.8785 31.1686 60.8657 30.9721C60.8188 30.0767 60.7635 29.1464 60.7123 28.2118Z" fill="white"/>
<path d="M56.5368 30.1684C56.5666 30.2514 56.5964 30.3388 56.6262 30.4261C56.6433 30.4742 56.6603 30.5178 56.6774 30.5659C56.7157 30.6707 56.7498 30.7799 56.7882 30.8891C56.8009 30.9197 56.8095 30.9546 56.8222 30.9852C56.9245 31.2822 57.031 31.5923 57.1461 31.9198C57.1588 31.9548 57.1716 31.9897 57.1801 32.0246C57.0694 32.1251 56.9671 32.2255 56.9075 32.3085C56.7413 32.5444 56.7796 32.6012 56.7796 32.6012C56.7796 32.6012 56.818 32.6579 57.0907 32.5662C57.1588 32.5444 57.2398 32.5007 57.325 32.457C57.3421 32.5051 57.3591 32.5531 57.3719 32.6012C57.406 32.706 57.4443 32.8108 57.4784 32.9156C57.4997 32.9811 57.521 33.0466 57.5423 33.1078C57.5764 33.217 57.6147 33.3218 57.6488 33.431C57.6744 33.5009 57.6957 33.5708 57.7213 33.6406C57.7383 33.6887 57.7511 33.7367 57.7681 33.7848C58.0834 29.7317 58.5393 25.7092 59.9454 21.8352C60.0434 21.5687 60.1712 21.3154 60.3203 21.0883C60.3033 20.6952 60.2862 20.3153 60.2735 19.9571C60.2522 19.3631 60.6569 18.9526 61.3003 18.2057L52.4038 24.8619C52.6552 24.8313 53.1494 24.6828 53.5414 25.1152L54.2317 26.0804C54.1252 26.1765 54.0314 26.2726 53.9718 26.3556C53.8056 26.5914 53.844 26.6482 53.844 26.6482C53.844 26.6482 53.8823 26.705 54.155 26.6133C54.2487 26.5827 54.368 26.5172 54.4916 26.4429L55.6974 28.1244L55.9062 28.4171C55.9062 28.4171 55.9104 28.4258 55.9189 28.4476C55.9275 28.4695 55.936 28.4957 55.953 28.535C55.9658 28.5699 55.9829 28.6136 55.9999 28.6573C56.0084 28.6791 56.0169 28.7053 56.0255 28.7315C56.0383 28.7665 56.051 28.8058 56.0681 28.8451C56.0766 28.8713 56.0894 28.9018 56.0979 28.9281C56.1149 28.9717 56.132 29.0198 56.149 29.0678C56.1618 29.1071 56.1789 29.1464 56.1916 29.1857C56.2087 29.2381 56.23 29.2906 56.2513 29.3473C56.2556 29.3604 56.2598 29.3735 56.2641 29.3823C56.1235 29.5002 55.9871 29.6312 55.9104 29.7404C55.7443 29.9763 55.7826 30.033 55.7826 30.033C55.7826 30.033 55.821 30.0898 56.0936 29.9981C56.1874 29.9675 56.3024 29.9064 56.4217 29.8321C56.443 29.8933 56.4643 29.9588 56.4899 30.0243C56.5027 30.0811 56.5197 30.1248 56.5368 30.1684Z" fill="white"/>
<path d="M68.4755 10.9513C68.0366 10.2262 65.331 11.1347 63.1325 12.7769C57.2228 17.1881 46.6944 24.7745 44.6662 26.871C44.3765 27.1679 43.895 27.6615 43.3369 28.238C43.077 28.321 42.7872 28.3647 42.4847 28.3341C40.7207 28.1681 35.4374 27.3557 35.301 27.3907C35.1689 27.4256 34.4744 27.8755 34.4744 28.0065C34.4744 28.1375 39.4468 30.7799 39.7834 30.9852C39.9666 31.0987 40.0859 31.3477 40.1541 31.5486C40.0646 31.6447 39.9751 31.7408 39.8942 31.8281C39.3573 32.4134 39.4425 32.5531 39.4851 32.5837C39.5022 32.6361 39.6044 32.7628 40.3117 32.4177C40.4182 32.3653 40.529 32.3085 40.6483 32.2518C40.8145 32.3828 41.0105 32.5706 41.0573 32.789C41.1426 33.1777 42.0672 38.8424 42.1907 38.8817C42.3143 38.921 42.9449 38.3838 43.0173 38.2659C43.0897 38.1479 43.9589 32.7409 44.3467 30.9721C44.4148 30.6663 44.5427 30.3999 44.7003 30.1684C45.4076 29.7972 46.0126 29.4784 46.3791 29.2906C48.9483 27.9585 59.2296 20.0183 65.135 15.6114C67.3421 13.9605 69.0123 11.602 68.4755 10.9513Z" fill="white"/>
<path d="M36.788 34.2434C34.3381 36.0777 31.5132 37.8815 28.5179 39.6285C15.9486 46.9529 4.10784 49.9097 2.06693 46.2279C1.45337 45.1229 1.79424 43.5506 2.9063 41.69C0.460612 44.6731 -0.566236 47.2019 0.307224 48.7785C2.47596 52.6875 15.4969 49.2939 29.3871 41.1965C32.2972 39.5019 35.693 37.3006 38.1515 35.5318C37.6658 35.3047 37.2056 35.0907 36.788 34.2434Z" fill="white"/>
<path d="M38.0663 35.5886C38.0918 35.5711 38.1217 35.5492 38.1472 35.5274C38.045 35.4794 37.9427 35.4313 37.8405 35.3789C37.9171 35.4619 37.9896 35.5274 38.0663 35.5886Z" fill="white"/>
<path d="M0.324277 45.861C0.273148 46.4812 0.371146 47.0359 0.626793 47.5076C2.78701 51.4646 15.3052 48.285 28.5946 40.4103C31.6751 38.5847 34.581 36.7023 37.1204 34.7849C37.0053 34.6364 36.8946 34.4617 36.7838 34.2434C34.3338 36.0777 31.5089 37.8815 28.5136 39.6285C15.9443 46.9529 4.10359 49.9097 2.06268 46.2279C1.44912 45.1229 1.78999 43.5506 2.90205 41.69C1.64512 43.223 0.767399 44.6337 0.324277 45.861Z" fill="white"/>
<path d="M36.3577 32.9724C22.1395 40.7947 8.76914 43.7559 6.59188 39.5936C5.93998 38.3445 6.35754 36.5975 7.64855 34.5534C4.8407 37.816 3.62638 40.6025 4.55949 42.3888C6.87309 46.8131 21.4109 43.4327 37.1246 34.7893C36.8093 34.5185 36.6432 33.7367 36.3577 32.9724Z" fill="white"/>
<path d="M38.1003 19.4985C37.3249 19.2627 36.8732 18.4591 37.2098 17.7035C37.4186 17.2318 37.8575 17.009 38.3262 16.8169C38.3475 16.6902 38.373 16.5635 38.4029 16.4369C38.2239 16.0263 38.1344 15.594 38.1557 15.1441C38.0407 15.0655 37.9342 14.9738 37.8447 14.8558C37.2865 14.1134 36.3705 13.7552 35.6461 13.0215C34.7258 12.0868 34.3849 10.7198 34.9431 9.50996C34.8323 9.41825 34.7471 9.30469 34.7045 9.16493C34.6363 8.93782 34.9005 8.40061 34.9772 8.40934C35.1945 8.43118 35.4161 8.44865 35.6376 8.45739C36.3023 7.70617 37.1246 7.30872 38.0237 7.13402C38.0492 7.11218 38.0748 7.09471 38.0918 7.08598C38.1643 7.05977 38.241 7.03794 38.3176 7.0292C38.3986 7.02047 38.471 7.03357 38.5477 7.05977C40.0475 6.90254 41.7007 7.25195 43.1622 7.53147C43.4817 7.14712 43.8567 6.77588 44.3594 6.27362C44.4873 6.14696 44.6236 6.02467 44.7727 5.91548C42.5742 4.68383 40.1711 3.79285 37.6317 3.29495C36.9414 4.77555 35.8933 6.02903 34.6662 7.13402C33.2218 8.43118 31.5345 9.52744 29.9026 10.5538C29.4169 10.8595 28.782 11.1609 28.3219 10.8202C27.7978 10.4271 27.998 9.59732 28.2239 8.96839C28.5306 8.11235 28.7735 7.19954 28.6414 6.29982C28.5093 5.40011 27.9086 4.51786 27.0394 4.32132C26.1702 4.12479 25.1518 4.87164 25.2541 5.77572C25.3521 6.65359 26.3193 7.18643 26.5281 8.04247C26.7454 8.94218 25.9997 9.85063 25.1348 10.1214C24.2699 10.3922 23.3367 10.2 22.4548 10.0035C22.1011 9.92488 21.6452 9.68903 21.7517 9.3309C21.8923 8.85047 22.834 9.06011 22.9234 8.56658C23.0129 8.07304 22.1991 8.11235 21.7901 8.39187C20.09 9.55801 18.3857 10.7241 16.6857 11.8903C16.4258 12.0693 16.1403 12.2834 16.0849 12.6022C15.94 13.432 17.018 12.9647 17.3035 13.2529C17.7892 13.7465 16.9243 14.6768 17.9426 14.5894C18.586 14.5326 19.1825 13.0433 19.468 12.576C19.8898 11.8815 20.5587 11.1958 21.3555 11.2745C21.7475 11.3138 22.1011 11.5365 22.4931 11.5802C22.8851 11.6282 23.3666 11.3662 23.324 10.9687C23.7373 11.1085 24.0227 11.5234 24.1335 11.9558C24.2912 12.5629 24.142 13.1438 24.1506 13.7508C24.1548 13.9081 24.4872 15.5153 24.5425 15.4236C24.2699 15.8909 23.5711 15.8211 23.1067 15.559C22.6422 15.2926 22.2162 14.8864 21.6878 14.8427C21.1552 14.7991 20.5928 15.4717 20.9592 15.8691C21.2319 16.1661 21.8412 16.1006 21.9392 16.498C21.9946 16.7208 21.8327 16.9304 21.6793 17.0964C21.2745 17.5462 20.8442 18.0179 20.2775 18.2188C19.7108 18.4198 18.9694 18.2538 18.7223 17.6947C17.9128 19.2933 16.6644 20.6516 15.156 21.5775C14.5041 21.9793 13.7031 22.4597 13.7159 23.2372C13.7202 23.521 13.8395 23.7918 13.8522 24.0757C13.865 24.3596 13.6989 24.6959 13.4219 24.7003C12.9021 24.7046 13.0427 23.8224 12.7402 23.3856C12.5186 23.0624 12.067 23.0362 11.6792 23.0493C10.8527 23.0756 10.009 23.1367 9.24208 23.4468C9.07165 23.5167 8.90548 23.604 8.74783 23.7001C8.54757 24.8837 8.42401 26.0979 8.38992 27.3339C9.14834 27.6702 10.1922 27.085 10.1795 26.2377C10.6183 27.2378 11.0657 28.2598 11.7815 29.0722C12.4973 29.8846 13.5455 30.4742 14.6064 30.3519C15.3563 30.2689 16.0338 29.8496 16.7666 29.6749C18.2068 29.3342 19.6767 29.9588 21.0274 30.5659L28.8076 34.0687C28.9908 34.1516 29.1868 34.2434 29.2976 34.4137C29.3785 34.536 29.4041 34.6845 29.4126 34.8373C31.4748 33.8896 33.5797 32.8283 35.6887 31.6709L35.693 31.6665C35.088 31.1511 34.598 30.4174 34.2614 29.5963C33.324 29.0372 33.0428 28.714 33.0513 27.9759C33.0598 27.3994 33.3964 26.9539 33.7842 26.6264C33.8481 25.9014 34.0611 25.22 34.4489 24.6697C34.8664 24.0757 35.5567 23.6695 36.0168 23.0974C36.5239 22.4685 36.8903 21.7391 37.4399 21.1451C37.9257 20.6166 38.5818 20.1056 39.3019 19.7256C39.2167 19.6514 39.1357 19.5728 39.0548 19.4898C38.7522 19.5903 38.4327 19.599 38.1003 19.4985ZM55.4588 38.3751C51.6155 47.1844 43.0045 53.3251 32.9832 53.3251C30.2776 53.3251 27.6742 52.8709 25.2371 52.0455C24.9431 51.3903 24.8195 50.6391 24.8578 49.9141C24.9218 48.6606 25.3777 47.4683 25.8421 46.3021C26.0977 45.6601 26.3619 45.0225 26.6474 44.3979C27.7893 43.7864 28.9397 43.1444 30.0943 42.4718C33.0428 40.751 36.4472 38.5541 38.9738 36.7329L40.1455 35.8899C40.2393 36.4359 40.3373 36.9862 40.4267 37.4797C40.7889 39.4713 40.8869 40.0041 41.7731 40.2837L41.9947 40.3492H42.212C43.2687 40.3492 44.2316 39.0564 44.2401 39.0433C44.3509 38.8642 44.3935 38.79 44.5171 38.1523C44.6492 39.0302 44.6875 39.9299 44.8579 40.7947C45.2712 42.9086 46.1575 44.9831 46.8222 47.0272C46.8733 47.1844 46.9329 47.3504 47.065 47.4421C47.3122 47.6124 47.636 47.4377 47.8831 47.263C48.7353 46.6559 49.5874 46.0445 50.3884 45.3675C50.9423 44.9002 51.4707 44.3717 51.7263 43.6685C51.9692 43.0003 51.8073 42.2316 52.178 41.607C52.57 40.9519 53.486 40.8471 53.9675 40.2706C54.9304 39.1175 54.1379 38.0038 54.1337 36.7372C54.1337 35.8899 54.3936 35.2261 54.7941 34.6583C54.9219 34.9422 55.0497 35.2304 55.1349 35.5318C55.3949 36.4315 55.365 37.4273 55.4588 38.3751ZM11.2787 40.0041C9.51477 36.6324 8.47088 32.8064 8.36862 28.7359C9.66816 29.4565 10.972 30.1815 12.2715 30.9022C12.8424 31.2167 13.4389 31.5617 13.7542 32.1426C14.3593 33.2519 13.6818 34.6277 13.8054 35.8943C13.9502 37.3705 15.1092 38.4056 16.2042 39.4495C14.436 39.8163 12.8339 40.0129 11.4577 40.0129C11.4023 40.0085 11.3426 40.0085 11.2787 40.0041ZM20.759 47.5556C21.3043 48.8091 21.9989 50.0757 22.8851 51.1064C21.2575 50.3552 19.7279 49.4293 18.3133 48.3505C19.0845 48.0317 19.8727 47.6954 20.6652 47.3372C20.6993 47.4115 20.7291 47.4814 20.759 47.5556ZM33.1025 56.1946C26.9968 56.1946 21.0189 54.0764 16.234 50.2155C16.1403 50.1412 15.5821 49.7088 15.4926 49.6302L16.4982 49.2983C21.1808 53.1723 27.0777 55.308 33.1067 55.308C42.7659 55.308 51.6539 49.9097 56.3067 41.2227L56.2641 43.0352C51.2832 51.1982 42.5486 56.1946 33.1025 56.1946ZM6.12319 32.5837C5.90163 31.1424 5.79085 29.6662 5.79085 28.1987C5.79085 12.7638 18.0449 0.202732 33.1025 0.202732C41.0531 0.202732 48.5947 3.74481 53.7928 9.92488L52.4038 9.65846C47.4059 4.19903 40.4353 1.08934 33.1025 1.08934C18.5178 1.08934 6.65153 13.2529 6.65153 28.203C6.65153 29.4041 6.72822 30.6052 6.88161 31.7932L6.12319 32.5837Z" fill="white"/>
<path d="M13.0129 31.352C11.6111 31.8237 10.1965 32.2561 8.76913 32.6492C8.54331 31.3739 8.40697 30.068 8.37288 28.7359C9.67242 29.4565 10.9762 30.1815 12.2758 30.9022C12.5229 31.042 12.7785 31.1861 13.0129 31.352ZM13.4049 24.7046C12.885 24.709 13.0257 23.8268 12.7231 23.39C12.5016 23.0668 12.0499 23.0406 11.6622 23.0537C10.8356 23.0799 9.99198 23.1411 9.22504 23.4512C9.05461 23.521 8.88844 23.6084 8.73079 23.7045C8.53053 24.8881 8.40697 26.1023 8.37288 27.3383C9.1313 27.6746 10.1752 27.0893 10.1624 26.242C10.6013 27.2422 11.0487 28.2642 11.7645 29.0766C12.4803 29.8889 13.5284 30.4785 14.5894 30.3562C15.3393 30.2733 16.0125 29.854 16.7496 29.6793C17.0819 29.6007 17.4143 29.5745 17.7466 29.5876C17.8361 29.5526 17.9213 29.5177 18.0108 29.4827C22.3227 27.5261 26.511 25.2288 30.3287 22.3898C32.8383 20.2803 35.1263 17.935 37.1885 15.3668C37.3547 15.1354 37.5124 14.8951 37.6785 14.6593C37.1161 14.0391 36.298 13.681 35.6419 13.0127C34.7215 12.0781 34.3807 10.711 34.9388 9.50123C34.8281 9.40951 34.7429 9.29596 34.7002 9.15619C34.6321 8.92908 34.8962 8.39187 34.9729 8.40061C35.1902 8.42245 35.4118 8.43992 35.6334 8.44865C36.298 7.69744 37.1204 7.29999 38.0194 7.12529C38.045 7.10345 38.0705 7.08598 38.0876 7.07724C38.16 7.05104 38.2367 7.0292 38.3134 7.02047C38.3943 7.01173 38.4668 7.02483 38.5435 7.05104C39.647 6.93748 40.84 7.09471 41.9734 7.29999C42.3398 6.55314 42.6935 5.79319 43.0301 5.02887C41.3215 4.24708 39.5107 3.65746 37.6189 3.28622C36.9286 4.76681 35.8805 6.0203 34.6534 7.12529C33.209 8.42245 31.5217 9.5187 29.8898 10.5451C29.4041 10.8508 28.7692 11.1522 28.3091 10.8115C27.785 10.4184 27.9853 9.58858 28.2111 8.95965C28.5179 8.10362 28.7607 7.1908 28.6286 6.29109C28.4965 5.39137 27.8958 4.50913 27.0266 4.31259C26.1574 4.11605 25.1391 4.8629 25.2413 5.76698C25.3393 6.64486 26.3065 7.1777 26.5153 8.03374C26.7326 8.93345 25.9869 9.8419 25.122 10.1127C24.2571 10.3835 23.324 10.1913 22.442 9.99476C22.0883 9.91615 21.6324 9.6803 21.739 9.32216C21.8796 8.84173 22.8212 9.05137 22.9107 8.55784C23.0001 8.06431 22.1863 8.10362 21.7773 8.38314C20.0772 9.54927 18.3729 10.7154 16.6729 11.8815C16.413 12.0606 16.1275 12.2746 16.0721 12.5935C15.9272 13.4233 17.0052 12.956 17.2907 13.2442C17.7764 13.7377 16.9115 14.668 17.9298 14.5807C18.5732 14.5239 19.1697 13.0346 19.4552 12.5672C19.877 11.8728 20.5459 11.1871 21.3427 11.2657C21.7347 11.305 22.0883 11.5278 22.4803 11.5714C22.8723 11.6195 23.3538 11.3574 23.3112 10.96C23.7245 11.0998 24.0099 11.5147 24.1207 11.9471C24.2784 12.5541 24.1292 13.135 24.1378 13.7421C24.142 13.8993 24.4744 15.5066 24.5298 15.4149C24.2571 15.8822 23.5583 15.8123 23.0939 15.5503C22.6295 15.2839 22.2034 14.8777 21.675 14.834C21.1424 14.7903 20.58 15.4629 20.9464 15.8604C21.2191 16.1574 21.8284 16.0919 21.9264 16.4893C21.9818 16.712 21.8199 16.9217 21.6665 17.0877C21.2617 17.5375 20.8314 18.0092 20.2647 18.2101C19.698 18.411 18.9567 18.2451 18.7095 17.686C17.9 19.2845 16.6516 20.6428 15.1433 21.5688C14.4914 21.9706 13.6903 22.451 13.7031 23.2284C13.7074 23.5123 13.8267 23.7831 13.8395 24.067C13.848 24.364 13.6818 24.7003 13.4049 24.7046ZM6.12319 32.5837C5.90163 31.1424 5.79085 29.6662 5.79085 28.1987C5.79085 12.7638 18.0449 0.202732 33.1025 0.202732C36.9159 0.202732 40.6313 1.01946 44.0441 2.5481C43.9291 2.81016 43.8183 3.08094 43.7118 3.36047C40.4054 1.8755 36.8008 1.08498 33.1025 1.08498C18.5178 1.08498 6.65153 13.2486 6.65153 28.1987C6.65153 29.3998 6.72822 30.6008 6.88161 31.7888L6.12319 32.5837Z" fill="white"/>
<path d="M87.924 37.298V38.824H84.942V47H83.164V38.824H80.182V37.298H87.924Z" fill="white"/>
<path d="M90.3696 42.142C90.3696 42.674 90.435 43.1593 90.5656 43.598C90.6963 44.0273 90.883 44.396 91.1256 44.704C91.3776 45.0027 91.681 45.236 92.0356 45.404C92.3903 45.572 92.7916 45.656 93.2396 45.656C93.6783 45.656 94.075 45.572 94.4296 45.404C94.7843 45.236 95.083 45.0027 95.3256 44.704C95.5776 44.396 95.769 44.0273 95.8996 43.598C96.0303 43.1593 96.0956 42.674 96.0956 42.142C96.0956 41.61 96.0303 41.1293 95.8996 40.7C95.769 40.2613 95.5776 39.8927 95.3256 39.594C95.083 39.286 94.7843 39.048 94.4296 38.88C94.075 38.712 93.6783 38.628 93.2396 38.628C92.7916 38.628 92.3903 38.712 92.0356 38.88C91.681 39.048 91.3776 39.286 91.1256 39.594C90.883 39.902 90.6963 40.2707 90.5656 40.7C90.435 41.1293 90.3696 41.61 90.3696 42.142ZM97.9436 42.142C97.9436 42.9727 97.8176 43.7053 97.5656 44.34C97.323 44.9747 96.987 45.5067 96.5576 45.936C96.1376 46.356 95.643 46.6733 95.0736 46.888C94.5043 47.1027 93.8976 47.21 93.2536 47.21C92.6096 47.21 91.9983 47.1027 91.4196 46.888C90.8503 46.6733 90.351 46.356 89.9216 45.936C89.5016 45.5067 89.1656 44.9747 88.9136 44.34C88.6616 43.7053 88.5356 42.9727 88.5356 42.142C88.5356 41.3113 88.6616 40.5833 88.9136 39.958C89.1656 39.3233 89.5063 38.7913 89.9356 38.362C90.3743 37.9327 90.8783 37.6107 91.4476 37.396C92.017 37.1813 92.619 37.074 93.2536 37.074C93.8883 37.074 94.4903 37.1813 95.0596 37.396C95.629 37.6107 96.1236 37.9327 96.5436 38.362C96.973 38.7913 97.3136 39.3233 97.5656 39.958C97.8176 40.5833 97.9436 41.3113 97.9436 42.142Z" fill="white"/>
<path d="M103.617 47.21C102.954 47.21 102.385 47.1167 101.909 46.93C101.433 46.734 101.036 46.4633 100.719 46.118C100.411 45.7727 100.182 45.3667 100.033 44.9C99.8835 44.4333 99.8088 43.92 99.8088 43.36V37.298H101.587V43.192C101.587 43.6307 101.633 44.0087 101.727 44.326C101.829 44.634 101.969 44.886 102.147 45.082C102.333 45.278 102.548 45.4227 102.791 45.516C103.043 45.6093 103.323 45.656 103.631 45.656C103.939 45.656 104.219 45.6093 104.471 45.516C104.723 45.4227 104.937 45.278 105.115 45.082C105.301 44.886 105.441 44.634 105.535 44.326C105.637 44.0087 105.689 43.6307 105.689 43.192V37.298H107.467V43.36C107.467 43.92 107.387 44.4333 107.229 44.9C107.079 45.3667 106.846 45.7727 106.529 46.118C106.221 46.4633 105.824 46.734 105.339 46.93C104.853 47.1167 104.279 47.21 103.617 47.21Z" fill="white"/>
<path d="M112.397 37.2C113.797 37.2 114.865 37.4567 115.603 37.97C116.349 38.4833 116.723 39.2673 116.723 40.322C116.723 41.638 116.074 42.5293 114.777 42.996C114.954 43.2107 115.155 43.472 115.379 43.78C115.603 44.088 115.831 44.424 116.065 44.788C116.298 45.1427 116.522 45.5113 116.737 45.894C116.951 46.2673 117.143 46.636 117.311 47H115.337C115.159 46.664 114.968 46.328 114.763 45.992C114.557 45.6467 114.347 45.3153 114.133 44.998C113.927 44.6713 113.722 44.368 113.517 44.088C113.311 43.7987 113.12 43.542 112.943 43.318C112.812 43.3273 112.7 43.332 112.607 43.332C112.513 43.332 112.425 43.332 112.341 43.332H111.487V47H109.723V37.438C110.152 37.3447 110.609 37.284 111.095 37.256C111.58 37.2187 112.014 37.2 112.397 37.2ZM112.523 38.726C112.149 38.726 111.804 38.74 111.487 38.768V41.904H112.257C112.686 41.904 113.064 41.8807 113.391 41.834C113.717 41.7873 113.988 41.7033 114.203 41.582C114.427 41.4607 114.595 41.2973 114.707 41.092C114.819 40.8867 114.875 40.6253 114.875 40.308C114.875 40.0093 114.819 39.7573 114.707 39.552C114.595 39.3467 114.431 39.1833 114.217 39.062C114.011 38.9407 113.764 38.8567 113.475 38.81C113.185 38.754 112.868 38.726 112.523 38.726Z" fill="white"/>
<path d="M128.385 47C128.255 46.6173 128.119 46.2393 127.979 45.866C127.839 45.4927 127.704 45.11 127.573 44.718H123.485C123.355 45.11 123.219 45.4973 123.079 45.88C122.949 46.2533 122.818 46.6267 122.687 47H120.853C121.217 45.964 121.563 45.0073 121.889 44.13C122.216 43.2527 122.533 42.422 122.841 41.638C123.159 40.854 123.471 40.1073 123.779 39.398C124.087 38.6887 124.405 37.9887 124.731 37.298H126.397C126.724 37.9887 127.041 38.6887 127.349 39.398C127.657 40.1073 127.965 40.854 128.273 41.638C128.591 42.422 128.913 43.2527 129.239 44.13C129.575 45.0073 129.925 45.964 130.289 47H128.385ZM125.529 39.174C125.315 39.6687 125.067 40.2707 124.787 40.98C124.517 41.6893 124.232 42.4593 123.933 43.29H127.125C126.827 42.4593 126.537 41.6847 126.257 40.966C125.977 40.2473 125.735 39.65 125.529 39.174Z" fill="white"/>
<path d="M138.054 47C137.736 46.468 137.382 45.8987 136.99 45.292C136.598 44.676 136.192 44.06 135.772 43.444C135.352 42.8187 134.922 42.2167 134.484 41.638C134.054 41.05 133.644 40.5227 133.252 40.056V47H131.516V37.298H132.958C133.331 37.69 133.732 38.1567 134.162 38.698C134.591 39.23 135.02 39.7853 135.45 40.364C135.888 40.9427 136.308 41.526 136.71 42.114C137.12 42.6927 137.484 43.234 137.802 43.738V37.298H139.552V47H138.054Z" fill="white"/>
<path d="M143.643 45.544C143.745 45.5533 143.881 45.5627 144.049 45.572C144.217 45.572 144.445 45.572 144.735 45.572C145.92 45.572 146.802 45.2733 147.381 44.676C147.969 44.0693 148.263 43.2247 148.263 42.142C148.263 41.0407 147.978 40.196 147.409 39.608C146.839 39.02 145.957 38.726 144.763 38.726C144.24 38.726 143.867 38.74 143.643 38.768V45.544ZM150.111 42.142C150.111 42.982 149.98 43.7147 149.719 44.34C149.457 44.956 149.084 45.474 148.599 45.894C148.123 46.3047 147.544 46.6127 146.863 46.818C146.191 47.014 145.444 47.112 144.623 47.112C144.231 47.112 143.787 47.0933 143.293 47.056C142.798 47.028 142.327 46.9627 141.879 46.86V37.438C142.327 37.3353 142.803 37.27 143.307 37.242C143.811 37.214 144.259 37.2 144.651 37.2C145.463 37.2 146.205 37.298 146.877 37.494C147.549 37.6807 148.123 37.9793 148.599 38.39C149.084 38.7913 149.457 39.3047 149.719 39.93C149.98 40.546 150.111 41.2833 150.111 42.142Z" fill="white"/>
<path d="M162.067 37.298V38.824H159.085V47H157.307V38.824H154.325V37.298H162.067Z" fill="white"/>
<path d="M166.086 37.2C167.486 37.2 168.555 37.4567 169.292 37.97C170.039 38.4833 170.412 39.2673 170.412 40.322C170.412 41.638 169.763 42.5293 168.466 42.996C168.643 43.2107 168.844 43.472 169.068 43.78C169.292 44.088 169.521 44.424 169.754 44.788C169.987 45.1427 170.211 45.5113 170.426 45.894C170.641 46.2673 170.832 46.636 171 47H169.026C168.849 46.664 168.657 46.328 168.452 45.992C168.247 45.6467 168.037 45.3153 167.822 44.998C167.617 44.6713 167.411 44.368 167.206 44.088C167.001 43.7987 166.809 43.542 166.632 43.318C166.501 43.3273 166.389 43.332 166.296 43.332C166.203 43.332 166.114 43.332 166.03 43.332H165.176V47H163.412V37.438C163.841 37.3447 164.299 37.284 164.784 37.256C165.269 37.2187 165.703 37.2 166.086 37.2ZM166.212 38.726C165.839 38.726 165.493 38.74 165.176 38.768V41.904H165.946C166.375 41.904 166.753 41.8807 167.08 41.834C167.407 41.7873 167.677 41.7033 167.892 41.582C168.116 41.4607 168.284 41.2973 168.396 41.092C168.508 40.8867 168.564 40.6253 168.564 40.308C168.564 40.0093 168.508 39.7573 168.396 39.552C168.284 39.3467 168.121 39.1833 167.906 39.062C167.701 38.9407 167.453 38.8567 167.164 38.81C166.875 38.754 166.557 38.726 166.212 38.726Z" fill="white"/>
<path d="M179.163 47C179.032 46.6173 178.897 46.2393 178.757 45.866C178.617 45.4927 178.481 45.11 178.351 44.718H174.263C174.132 45.11 173.997 45.4973 173.857 45.88C173.726 46.2533 173.595 46.6267 173.465 47H171.631C171.995 45.964 172.34 45.0073 172.667 44.13C172.993 43.2527 173.311 42.422 173.619 41.638C173.936 40.854 174.249 40.1073 174.557 39.398C174.865 38.6887 175.182 37.9887 175.509 37.298H177.175C177.501 37.9887 177.819 38.6887 178.127 39.398C178.435 40.1073 178.743 40.854 179.051 41.638C179.368 42.422 179.69 43.2527 180.017 44.13C180.353 45.0073 180.703 45.964 181.067 47H179.163ZM176.307 39.174C176.092 39.6687 175.845 40.2707 175.565 40.98C175.294 41.6893 175.009 42.4593 174.711 43.29H177.903C177.604 42.4593 177.315 41.6847 177.035 40.966C176.755 40.2473 176.512 39.65 176.307 39.174Z" fill="white"/>
<path d="M184.299 47C183.599 45.488 182.923 43.906 182.269 42.254C181.625 40.602 181.023 38.95 180.463 37.298H182.409C182.633 37.9513 182.862 38.6187 183.095 39.3C183.329 39.9813 183.562 40.6533 183.795 41.316C184.029 41.9693 184.262 42.604 184.495 43.22C184.729 43.836 184.957 44.4007 185.181 44.914C185.396 44.4007 185.62 43.8407 185.853 43.234C186.087 42.618 186.32 41.9787 186.553 41.316C186.796 40.6533 187.034 39.9813 187.267 39.3C187.501 38.6187 187.725 37.9513 187.939 37.298H189.829C189.26 38.95 188.653 40.602 188.009 42.254C187.365 43.906 186.693 45.488 185.993 47H184.299Z" fill="white"/>
<path d="M191.084 47V37.298H197.314V38.796H192.848V41.19H196.824V42.66H192.848V45.502H197.65V47H191.084Z" fill="white"/>
<path d="M205.419 45.474V47H199.287V37.298H201.051V45.474H205.419Z" fill="white"/>
<path d="M212.898 45.474V47H206.766V37.298H208.53V45.474H212.898Z" fill="white"/>
<path d="M214.244 47V37.298H220.474V38.796H216.008V41.19H219.984V42.66H216.008V45.502H220.81V47H214.244Z" fill="white"/>
<path d="M225.121 37.2C226.521 37.2 227.59 37.4567 228.327 37.97C229.074 38.4833 229.447 39.2673 229.447 40.322C229.447 41.638 228.798 42.5293 227.501 42.996C227.678 43.2107 227.879 43.472 228.103 43.78C228.327 44.088 228.556 44.424 228.789 44.788C229.022 45.1427 229.246 45.5113 229.461 45.894C229.676 46.2673 229.867 46.636 230.035 47H228.061C227.884 46.664 227.692 46.328 227.487 45.992C227.282 45.6467 227.072 45.3153 226.857 44.998C226.652 44.6713 226.446 44.368 226.241 44.088C226.036 43.7987 225.844 43.542 225.667 43.318C225.536 43.3273 225.424 43.332 225.331 43.332C225.238 43.332 225.149 43.332 225.065 43.332H224.211V47H222.447V37.438C222.876 37.3447 223.334 37.284 223.819 37.256C224.304 37.2187 224.738 37.2 225.121 37.2ZM225.247 38.726C224.874 38.726 224.528 38.74 224.211 38.768V41.904H224.981C225.41 41.904 225.788 41.8807 226.115 41.834C226.442 41.7873 226.712 41.7033 226.927 41.582C227.151 41.4607 227.319 41.2973 227.431 41.092C227.543 40.8867 227.599 40.6253 227.599 40.308C227.599 40.0093 227.543 39.7573 227.431 39.552C227.319 39.3467 227.156 39.1833 226.941 39.062C226.736 38.9407 226.488 38.8567 226.199 38.81C225.91 38.754 225.592 38.726 225.247 38.726Z" fill="white"/>
<path d="M99.3597 0.202732V4.80091H92.3106V24.1617H87.0491V4.80091H80V0.202732H99.3597Z" fill="white"/>
<path d="M110.757 10.54C110.307 10.4247 109.779 10.3095 109.172 10.1943C108.565 10.056 107.913 9.98683 107.216 9.98683C106.901 9.98683 106.519 10.0214 106.069 10.0905C105.642 10.1366 105.316 10.1943 105.091 10.2634V24.1617H100.065V6.94442C100.965 6.62174 102.022 6.32211 103.236 6.04553C104.472 5.7459 105.844 5.59609 107.35 5.59609C107.62 5.59609 107.946 5.61913 108.329 5.66523C108.711 5.68828 109.093 5.73438 109.475 5.80352C109.858 5.84962 110.24 5.91876 110.622 6.01096C111.004 6.0801 111.33 6.1723 111.6 6.28754L110.757 10.54Z" fill="white"/>
<path d="M120.744 20.5661C121.239 20.5661 121.711 20.5546 122.161 20.5315C122.61 20.5085 122.97 20.4739 123.24 20.4278V16.5211C123.038 16.475 122.734 16.4289 122.329 16.3828C121.925 16.3367 121.554 16.3136 121.216 16.3136C120.744 16.3136 120.294 16.3482 119.867 16.4174C119.462 16.4635 119.103 16.5672 118.788 16.7285C118.473 16.8899 118.226 17.1088 118.046 17.3854C117.866 17.662 117.776 18.0077 117.776 18.4226C117.776 19.2293 118.035 19.794 118.552 20.1166C119.091 20.4163 119.822 20.5661 120.744 20.5661ZM120.339 5.49237C121.823 5.49237 123.06 5.66523 124.049 6.01096C125.039 6.35668 125.826 6.85223 126.41 7.49759C127.017 8.14295 127.445 8.92659 127.692 9.84854C127.939 10.7705 128.063 11.7961 128.063 12.9255V23.6431C127.343 23.8044 126.343 23.9888 125.061 24.1962C123.78 24.4267 122.228 24.542 120.407 24.542C119.26 24.542 118.214 24.4382 117.27 24.2308C116.348 24.0234 115.55 23.6892 114.875 23.2282C114.201 22.7442 113.684 22.1219 113.324 21.3613C112.964 20.6007 112.784 19.6672 112.784 18.5609C112.784 17.5006 112.987 16.6018 113.391 15.8642C113.819 15.1266 114.381 14.5389 115.078 14.101C115.775 13.6631 116.573 13.3519 117.472 13.1675C118.372 12.9601 119.305 12.8564 120.272 12.8564C120.924 12.8564 121.497 12.8909 121.992 12.9601C122.509 13.0062 122.925 13.0753 123.24 13.1675V12.6835C123.24 11.8077 122.981 11.1047 122.464 10.5746C121.947 10.0444 121.048 9.77939 119.766 9.77939C118.912 9.77939 118.068 9.84854 117.236 9.98683C116.404 10.1021 115.685 10.2749 115.078 10.5054L114.437 6.35668C114.729 6.26449 115.089 6.1723 115.516 6.0801C115.966 5.96486 116.449 5.87267 116.967 5.80352C117.484 5.71133 118.023 5.64218 118.585 5.59609C119.17 5.52694 119.755 5.49237 120.339 5.49237Z" fill="white"/>
<path d="M136.891 14.4813C136.891 17.3624 138.026 18.8029 140.297 18.8029C140.814 18.8029 141.298 18.7337 141.747 18.5954C142.197 18.4572 142.579 18.2958 142.894 18.1114V9.88311C142.647 9.83701 142.355 9.80244 142.017 9.77939C141.68 9.73329 141.286 9.71025 140.837 9.71025C139.51 9.71025 138.521 10.1597 137.869 11.0586C137.217 11.9575 136.891 13.0984 136.891 14.4813ZM147.92 21.8799C147.92 24.8531 147.178 27.0543 145.694 28.4833C144.232 29.9353 141.961 30.6613 138.881 30.6613C137.801 30.6613 136.722 30.5576 135.643 30.3502C134.563 30.1658 133.563 29.9123 132.641 29.5896L133.518 25.268C134.305 25.5907 135.126 25.8442 135.98 26.0286C136.857 26.213 137.846 26.3052 138.948 26.3052C140.387 26.3052 141.399 25.9825 141.984 25.3371C142.591 24.6918 142.894 23.862 142.894 22.8479V22.191C142.355 22.4445 141.792 22.6405 141.208 22.7788C140.646 22.894 140.027 22.9516 139.353 22.9516C136.902 22.9516 135.024 22.2141 133.72 20.739C132.416 19.2408 131.764 17.1549 131.764 14.4813C131.764 13.1445 131.966 11.9344 132.371 10.8511C132.776 9.74482 133.36 8.79983 134.125 8.01618C134.912 7.23253 135.868 6.63327 136.992 6.21839C138.116 5.78047 139.387 5.56151 140.803 5.56151C141.41 5.56151 142.029 5.59608 142.658 5.66523C143.31 5.71133 143.951 5.78047 144.581 5.87267C145.21 5.96486 145.806 6.0801 146.368 6.21839C146.953 6.33364 147.47 6.4604 147.92 6.5987V21.8799Z" fill="white"/>
<path d="M159.412 20.5661C159.907 20.5661 160.379 20.5546 160.829 20.5315C161.279 20.5085 161.638 20.4739 161.908 20.4278V16.5211C161.706 16.475 161.402 16.4289 160.998 16.3828C160.593 16.3367 160.222 16.3136 159.884 16.3136C159.412 16.3136 158.963 16.3482 158.535 16.4174C158.131 16.4635 157.771 16.5672 157.456 16.7285C157.141 16.8899 156.894 17.1088 156.714 17.3854C156.534 17.662 156.444 18.0077 156.444 18.4226C156.444 19.2293 156.703 19.794 157.22 20.1166C157.76 20.4163 158.49 20.5661 159.412 20.5661ZM159.008 5.49237C160.492 5.49237 161.728 5.66523 162.718 6.01096C163.707 6.35668 164.494 6.85223 165.079 7.49759C165.686 8.14295 166.113 8.92659 166.36 9.84854C166.608 10.7705 166.731 11.7961 166.731 12.9255V23.6431C166.012 23.8044 165.011 23.9888 163.729 24.1962C162.448 24.4267 160.896 24.542 159.075 24.542C157.928 24.542 156.883 24.4382 155.938 24.2308C155.016 24.0234 154.218 23.6892 153.544 23.2282C152.869 22.7442 152.352 22.1219 151.992 21.3613C151.632 20.6007 151.453 19.6672 151.453 18.5609C151.453 17.5006 151.655 16.6018 152.06 15.8642C152.487 15.1266 153.049 14.5389 153.746 14.101C154.443 13.6631 155.241 13.3519 156.141 13.1675C157.04 12.9601 157.973 12.8564 158.94 12.8564C159.592 12.8564 160.166 12.8909 160.66 12.9601C161.177 13.0062 161.593 13.0753 161.908 13.1675V12.6835C161.908 11.8077 161.65 11.1047 161.132 10.5746C160.615 10.0444 159.716 9.77939 158.434 9.77939C157.58 9.77939 156.737 9.84854 155.905 9.98683C155.073 10.1021 154.353 10.2749 153.746 10.5054L153.105 6.35668C153.398 6.26449 153.757 6.1723 154.185 6.0801C154.634 5.96486 155.118 5.87267 155.635 5.80352C156.152 5.71133 156.692 5.64218 157.254 5.59609C157.838 5.52694 158.423 5.49237 159.008 5.49237Z" fill="white"/>
<path d="M187.647 2.76112C187.917 3.70611 188.21 4.77786 188.524 5.97639C188.862 7.15186 189.21 8.37343 189.57 9.6411C189.952 10.9088 190.334 12.1764 190.717 13.4441C191.099 14.7118 191.47 15.8872 191.83 16.9705C192.122 15.7951 192.414 14.5159 192.707 13.1329C193.021 11.75 193.314 10.321 193.584 8.84593C193.853 7.37082 194.112 5.90724 194.359 4.45518C194.629 2.98008 194.876 1.56259 195.101 0.202732H200.565C199.778 4.21317 198.868 8.28124 197.833 12.4069C196.821 16.5326 195.72 20.4509 194.528 24.1617H189.705C188.918 21.949 188.153 19.6326 187.411 17.2125C186.669 14.7694 185.939 12.3263 185.219 9.88311C184.5 12.3263 183.78 14.7694 183.06 17.2125C182.341 19.6326 181.588 21.949 180.801 24.1617H175.978C174.786 20.4509 173.673 16.5326 172.639 12.4069C171.627 8.28124 170.727 4.21317 169.94 0.202732H175.64C175.865 1.56259 176.113 2.98008 176.382 4.45518C176.652 5.90724 176.933 7.37082 177.226 8.84593C177.518 10.321 177.81 11.75 178.103 13.1329C178.417 14.5159 178.732 15.7951 179.047 16.9705C179.452 15.8412 179.845 14.6426 180.227 13.375C180.61 12.1073 180.981 10.8396 181.34 9.57195C181.7 8.30429 182.026 7.08271 182.318 5.90724C182.633 4.73176 182.914 3.68306 183.162 2.76112H187.647Z" fill="white"/>
<path d="M209.433 20.5661C209.928 20.5661 210.4 20.5546 210.849 20.5315C211.299 20.5085 211.659 20.4739 211.929 20.4278V16.5211C211.726 16.475 211.423 16.4289 211.018 16.3828C210.613 16.3367 210.242 16.3136 209.905 16.3136C209.433 16.3136 208.983 16.3482 208.556 16.4174C208.151 16.4635 207.791 16.5672 207.477 16.7285C207.162 16.8899 206.915 17.1088 206.735 17.3854C206.555 17.662 206.465 18.0077 206.465 18.4226C206.465 19.2293 206.723 19.794 207.241 20.1166C207.78 20.4163 208.511 20.5661 209.433 20.5661ZM209.028 5.49237C210.512 5.49237 211.749 5.66523 212.738 6.01096C213.728 6.35668 214.515 6.85223 215.099 7.49759C215.706 8.14295 216.133 8.92659 216.381 9.84854C216.628 10.7705 216.752 11.7961 216.752 12.9255V23.6431C216.032 23.8044 215.032 23.9888 213.75 24.1962C212.468 24.4267 210.917 24.542 209.096 24.542C207.949 24.542 206.903 24.4382 205.959 24.2308C205.037 24.0234 204.239 23.6892 203.564 23.2282C202.89 22.7442 202.373 22.1219 202.013 21.3613C201.653 20.6007 201.473 19.6672 201.473 18.5609C201.473 17.5006 201.676 16.6018 202.08 15.8642C202.507 15.1266 203.07 14.5389 203.767 14.101C204.464 13.6631 205.262 13.3519 206.161 13.1675C207.061 12.9601 207.994 12.8564 208.961 12.8564C209.613 12.8564 210.186 12.8909 210.681 12.9601C211.198 13.0062 211.614 13.0753 211.929 13.1675V12.6835C211.929 11.8077 211.67 11.1047 211.153 10.5746C210.636 10.0444 209.736 9.77939 208.455 9.77939C207.6 9.77939 206.757 9.84854 205.925 9.98683C205.093 10.1021 204.374 10.2749 203.767 10.5054L203.126 6.35668C203.418 6.26449 203.778 6.1723 204.205 6.0801C204.655 5.96486 205.138 5.87267 205.655 5.80352C206.173 5.71133 206.712 5.64218 207.274 5.59609C207.859 5.52694 208.444 5.49237 209.028 5.49237Z" fill="white"/>
<path d="M236.619 5.97639C235.607 9.47976 234.55 12.7642 233.448 15.8296C232.347 18.8951 231.144 21.8683 229.839 24.7494C229.367 25.7866 228.895 26.6624 228.423 27.3769C227.951 28.1145 227.434 28.7137 226.871 29.1747C226.309 29.6587 225.668 30.0045 224.949 30.2119C224.252 30.4424 223.431 30.5576 222.487 30.5576C221.7 30.5576 220.969 30.477 220.295 30.3156C219.642 30.1773 219.103 30.016 218.676 29.8316L219.553 25.7174C220.07 25.9018 220.531 26.0286 220.935 26.0977C221.34 26.1669 221.767 26.2015 222.217 26.2015C223.116 26.2015 223.802 25.9479 224.274 25.4409C224.769 24.9568 225.185 24.2769 225.522 23.4011C224.376 21.0962 223.229 18.5148 222.082 15.6568C220.935 12.7757 219.856 9.54891 218.844 5.97639H224.173C224.398 6.87528 224.657 7.85484 224.949 8.91507C225.264 9.95225 225.59 11.0125 225.927 12.0958C226.264 13.156 226.602 14.1932 226.939 15.2073C227.299 16.2215 227.636 17.1434 227.951 17.9731C228.243 17.1434 228.547 16.2215 228.861 15.2073C229.176 14.1932 229.48 13.156 229.772 12.0958C230.087 11.0125 230.379 9.95225 230.649 8.91507C230.941 7.85484 231.2 6.87528 231.425 5.97639H236.619Z" fill="white"/>
</svg>
