<svg width="13" height="17" viewBox="0 0 13 17" fill="none" xmlns="http://www.w3.org/2000/svg">
<path d="M5.50837 16.5711C0.967812 9.82374 0.125 9.13125 0.125 6.65148C0.125 3.25473 2.81128 0.501139 6.125 0.501139C9.43872 0.501139 12.125 3.25473 12.125 6.65148C12.125 9.13125 11.2822 9.82374 6.74162 16.5711C6.44365 17.0124 5.80631 17.0123 5.50837 16.5711ZM6.125 9.21412C7.50572 9.21412 8.625 8.06679 8.625 6.65148C8.625 5.23616 7.50572 4.08884 6.125 4.08884C4.74428 4.08884 3.625 5.23616 3.625 6.65148C3.625 8.06679 4.74428 9.21412 6.125 9.21412Z" fill="white"/>
</svg>
