<svg width="17" height="17" viewBox="0 0 17 17" fill="none" xmlns="http://www.w3.org/2000/svg">
<path d="M16.0437 12.0906L12.5437 10.553C12.3941 10.4877 12.228 10.4739 12.0701 10.5138C11.9123 10.5536 11.7714 10.645 11.6686 10.774L10.1186 12.7153C7.68598 11.5396 5.72828 9.5328 4.58132 7.03923L6.47511 5.45036C6.60126 5.34519 6.69055 5.20074 6.72945 5.0389C6.76836 4.87706 6.75477 4.70663 6.69074 4.55342L5.19071 0.965656C5.12043 0.800493 4.99613 0.665644 4.83925 0.584359C4.68237 0.503075 4.50273 0.480451 4.33132 0.520389L1.08126 1.2892C0.915998 1.32831 0.76855 1.4237 0.662983 1.55978C0.557415 1.69586 0.499962 1.8646 0.5 2.03846C0.5 10.2551 6.99699 16.9021 15.0003 16.9021C15.1699 16.9022 15.3346 16.8433 15.4674 16.7351C15.6002 16.6269 15.6933 16.4757 15.7315 16.3062L16.4815 12.9747C16.5202 12.7982 16.4977 12.6133 16.4178 12.4519C16.3379 12.2906 16.2056 12.1628 16.0437 12.0906Z" fill="white"/>
</svg>
