<svg width="45" height="45" viewBox="0 0 45 45" fill="none" xmlns="http://www.w3.org/2000/svg">
<circle cx="22.5" cy="22.5" r="22" stroke="#060D1C" stroke-dasharray="3 3"/>
<path d="M29.75 29.7188L25.5625 25.5312C26.4688 24.4375 26.9688 23.0312 26.9688 21.5C26.9688 17.9375 24.0312 15 20.4688 15C16.875 15 14 17.9375 14 21.5C14 25.0938 16.9062 28 20.4688 28C21.9688 28 23.375 27.5 24.5 26.5938L28.6875 30.7812C28.8438 30.9375 29.0312 31 29.25 31C29.4375 31 29.625 30.9375 29.75 30.7812C30.0625 30.5 30.0625 30.0312 29.75 29.7188ZM15.5 21.5C15.5 18.75 17.7188 16.5 20.5 16.5C23.25 16.5 25.5 18.75 25.5 21.5C25.5 24.2812 23.25 26.5 20.5 26.5C17.7188 26.5 15.5 24.2812 15.5 21.5Z" fill="#060D1C"/>
</svg>
